# xmcd CD database file
#
# Track frame offsets:
#	150
#	16936
#	41128
#	58943
#	79303
#	96379
#	107914
#	131391
#	148230
#	172895
#	192466
#
# Disc length: 2759 seconds
#
# Revision: 0
# Processed by: cddbd v1.4PL0 Copyright (c) Steve Scherf et al.
# Submitted via: CDex 1.40Release
#
DISCID=9f0ac50b
DTITLE=Champion Jack Dupree - Anthology of the Blues
DYEAR=1996
DGENRE=Blues
TTITLE0=The Tricks
TTITLE1=Death of Luther King
TTITLE2=Ugly Woman
TTITLE3=In the Evening
TTITLE4=Take Me Back, Baby
TTITLE5=Early in the Morning
TTITLE6=My Black and White Dog
TTITLE7=My Next Door Neighbour
TTITLE8=I had a Dream
TTITLE9=Goin' to Paris
TTITLE10=I'm Tired of Moanin'
EXTD=YEAR: 1996 ID3G: 0
EXTT0=
EXTT1=
EXTT2=
EXTT3=
EXTT4=
EXTT5=
EXTT6=
EXTT7=
EXTT8=
EXTT9=
EXTT10=
PLAYORDER=
